%TF.GenerationSoftware,KiCad,Pcbnew,10.0.1*%
%TF.CreationDate,2026-06-20T17:31:17+05:30*%
%TF.ProjectId,hermas,6865726d-6173-42e6-9b69-6361645f7063,rev?*%
%TF.SameCoordinates,Original*%
%TF.FileFunction,Copper,L1,Top*%
%TF.FilePolarity,Positive*%
%FSLAX46Y46*%
G04 Gerber Fmt 4.6, Leading zero omitted, Abs format (unit mm)*
G04 Created by KiCad (PCBNEW 10.0.1) date 2026-06-20 17:31:17*
%MOMM*%
%LPD*%
G01*
G04 APERTURE LIST*
G04 Aperture macros list*
%AMRoundRect*
0 Rectangle with rounded corners*
0 $1 Rounding radius*
0 $2 $3 $4 $5 $6 $7 $8 $9 X,Y pos of 4 corners*
0 Add a 4 corners polygon primitive as box body*
4,1,4,$2,$3,$4,$5,$6,$7,$8,$9,$2,$3,0*
0 Add four circle primitives for the rounded corners*
1,1,$1+$1,$2,$3*
1,1,$1+$1,$4,$5*
1,1,$1+$1,$6,$7*
1,1,$1+$1,$8,$9*
0 Add four rect primitives between the rounded corners*
20,1,$1+$1,$2,$3,$4,$5,0*
20,1,$1+$1,$4,$5,$6,$7,0*
20,1,$1+$1,$6,$7,$8,$9,0*
20,1,$1+$1,$8,$9,$2,$3,0*%
G04 Aperture macros list end*
%TA.AperFunction,SMDPad,CuDef*%
%ADD10RoundRect,0.075000X-0.350000X-0.075000X0.350000X-0.075000X0.350000X0.075000X-0.350000X0.075000X0*%
%TD*%
%TA.AperFunction,SMDPad,CuDef*%
%ADD11RoundRect,0.075000X0.075000X-0.350000X0.075000X0.350000X-0.075000X0.350000X-0.075000X-0.350000X0*%
%TD*%
%TA.AperFunction,ComponentPad*%
%ADD12R,1.508000X1.508000*%
%TD*%
%TA.AperFunction,ComponentPad*%
%ADD13C,1.508000*%
%TD*%
%TA.AperFunction,ComponentPad*%
%ADD14C,3.000000*%
%TD*%
%TA.AperFunction,SMDPad,CuDef*%
%ADD15RoundRect,0.152400X-0.609600X1.063600X-0.609600X-1.063600X0.609600X-1.063600X0.609600X1.063600X0*%
%TD*%
%TA.AperFunction,ComponentPad*%
%ADD16C,1.524000*%
%TD*%
%TA.AperFunction,SMDPad,CuDef*%
%ADD17RoundRect,0.152400X0.609600X-1.063600X0.609600X1.063600X-0.609600X1.063600X-0.609600X-1.063600X0*%
%TD*%
%TA.AperFunction,ComponentPad*%
%ADD18C,1.600000*%
%TD*%
%TA.AperFunction,ViaPad*%
%ADD19C,0.600000*%
%TD*%
%TA.AperFunction,Conductor*%
%ADD20C,0.200000*%
%TD*%
G04 APERTURE END LIST*
D10*
%TO.P,U4,1,CLKIN_1*%
%TO.N,unconnected-(U4-CLKIN-Pad1)*%
X166000000Y-90500000D03*
%TO.P,U4,2,NC_2*%
%TO.N,unconnected-(U4-NC-Pad2)*%
X166000000Y-91000000D03*
%TO.P,U4,3,NC_3*%
%TO.N,unconnected-(U4-NC-Pad3)*%
X166000000Y-91500000D03*
%TO.P,U4,4,NC_4*%
%TO.N,unconnected-(U4-NC-Pad4)*%
X166000000Y-92000000D03*
%TO.P,U4,5,NC_5*%
%TO.N,unconnected-(U4-NC-Pad5)*%
X166000000Y-92500000D03*
%TO.P,U4,6,AUX_DA_6*%
%TO.N,unconnected-(U4-AUX_DA-Pad6)*%
X166000000Y-93000000D03*
D11*
%TO.P,U4,7,AUX_CL_7*%
%TO.N,unconnected-(U4-AUX_CL-Pad7)*%
X166700000Y-93700000D03*
%TO.P,U4,8,VLOGIC_8*%
%TO.N,+3V3*%
X167200000Y-93700000D03*
%TO.P,U4,9,AD0_9*%
%TO.N,unconnected-(U4-AD0-Pad9)*%
X167700000Y-93700000D03*
%TO.P,U4,10,REGOUT_10*%
%TO.N,unconnected-(U4-REGOUT-Pad10)*%
X168200000Y-93700000D03*
%TO.P,U4,11,FSYNC_11*%
%TO.N,unconnected-(U4-FSYNC-Pad11)*%
X168700000Y-93700000D03*
%TO.P,U4,12,INT_12*%
%TO.N,Net-(U2-P0_D6_TX)*%
X169200000Y-93700000D03*
D10*
%TO.P,U4,13,VDD_13*%
%TO.N,+3V3*%
X169900000Y-93000000D03*
%TO.P,U4,14,NC_14*%
%TO.N,unconnected-(U4-NC-Pad14)*%
X169900000Y-92500000D03*
%TO.P,U4,15,NC_15*%
%TO.N,unconnected-(U4-NC-Pad15)*%
X169900000Y-92000000D03*
%TO.P,U4,16,NC_16*%
%TO.N,unconnected-(U4-NC-Pad16)*%
X169900000Y-91500000D03*
%TO.P,U4,17,NC_17*%
%TO.N,unconnected-(U4-NC-Pad17)*%
X169900000Y-91000000D03*
%TO.P,U4,18,GND_18*%
%TO.N,GND*%
X169900000Y-90500000D03*
D11*
%TO.P,U4,19,RESV_19*%
%TO.N,unconnected-(U4-RESV-Pad19)*%
X169200000Y-89800000D03*
%TO.P,U4,20,CPOUT_20*%
%TO.N,Net-(U4-CPOUT)*%
X168700000Y-89800000D03*
%TO.P,U4,21,RESV_21*%
%TO.N,unconnected-(U4-RESV-Pad21)*%
X168200000Y-89800000D03*
%TO.P,U4,22,RESV_22*%
%TO.N,unconnected-(U4-RESV-Pad22)*%
X167700000Y-89800000D03*
%TO.P,U4,23,SCL_23*%
%TO.N,/scl*%
X167200000Y-89800000D03*
%TO.P,U4,24,SDA_24*%
%TO.N,/sda*%
X166700000Y-89800000D03*
%TD*%
D12*
%TO.P,U3,1,GND_1*%
%TO.N,GND*%
X147190000Y-70000000D03*
D13*
%TO.P,U3,2,VCC_IN_2*%
%TO.N,+3V3*%
X149730000Y-70000000D03*
%TO.P,U3,3,SCL_3*%
%TO.N,/scl*%
X152270000Y-70000000D03*
%TO.P,U3,4,SDA_4*%
%TO.N,/sda*%
X154810000Y-70000000D03*
D14*
%TO.P,U3,S1*%
%TO.N,N/C*%
X140000000Y-70500000D03*
%TO.P,U3,S2*%
X162000000Y-70500000D03*
%TO.P,U3,S3*%
X162000000Y-92500000D03*
%TO.P,U3,S4*%
X140000000Y-92500000D03*
%TD*%
D15*
%TO.P,U2,1,P26_A0_D0_1*%
%TO.N,unconnected-(U2-P26_A0_D0-Pad1)*%
X140648500Y-115455000D03*
D16*
X140648500Y-114620000D03*
D15*
%TO.P,U2,2,P27_A1_D1_2*%
%TO.N,unconnected-(U2-P27_A1_D1-Pad2)*%
X143188500Y-115455000D03*
D16*
X143188500Y-114620000D03*
D15*
%TO.P,U2,3,P28_A2_D2_3*%
%TO.N,unconnected-(U2-P28_A2_D2-Pad3)*%
X145728500Y-115455000D03*
D16*
X145728500Y-114620000D03*
D15*
%TO.P,U2,4,P29_A3_D3_4*%
%TO.N,unconnected-(U2-P29_A3_D3-Pad4)*%
X148268500Y-115455000D03*
D16*
X148268500Y-114620000D03*
D15*
%TO.P,U2,5,P6_SDA_D4_5*%
%TO.N,/sda*%
X150808500Y-115455000D03*
D16*
X150808500Y-114620000D03*
D15*
%TO.P,U2,6,P7_SCL_D5_6*%
%TO.N,/scl*%
X153348500Y-115455000D03*
D16*
X153348500Y-114620000D03*
D15*
%TO.P,U2,7,P0_D6_TX_7*%
%TO.N,Net-(U2-P0_D6_TX)*%
X155888500Y-115455000D03*
D16*
X155888500Y-114620000D03*
%TO.P,U2,8,P1_D7_RX_8*%
%TO.N,unconnected-(U2-P1_D7_RX-Pad8)*%
X155888500Y-99380000D03*
D17*
X155888500Y-98545000D03*
D16*
%TO.P,U2,9,P2_D8_SCK_9*%
%TO.N,unconnected-(U2-P2_D8_SCK-Pad9)*%
X153348500Y-99380000D03*
D17*
X153348500Y-98545000D03*
D16*
%TO.P,U2,10,P4_D9_MISO_10*%
%TO.N,unconnected-(U2-P4_D9_MISO-Pad10)*%
X150808500Y-99380000D03*
D17*
X150808500Y-98545000D03*
D16*
%TO.P,U2,11,P3_D10_MOSI_11*%
%TO.N,unconnected-(U2-P3_D10_MOSI-Pad11)*%
X148268500Y-99380000D03*
D17*
X148268500Y-98545000D03*
D16*
%TO.P,U2,12,3V3_12*%
%TO.N,unconnected-(U2-3V3-Pad12)*%
X145728500Y-99380000D03*
D17*
X145728500Y-98545000D03*
D16*
%TO.P,U2,13,GND_13*%
%TO.N,GND*%
X143188500Y-99380000D03*
D17*
X143188500Y-98545000D03*
D16*
%TO.P,U2,14,VBUS_14*%
%TO.N,unconnected-(U2-VBUS-Pad14)*%
X140648500Y-99380000D03*
D17*
X140648500Y-98545000D03*
%TD*%
D18*
%TO.P,R2,1*%
%TO.N,/sdl*%
X161190000Y-104000000D03*
%TO.P,R2,2*%
%TO.N,+3V3*%
X168810000Y-104000000D03*
%TD*%
%TO.P,R1,1*%
%TO.N,/sda*%
X161190000Y-99950000D03*
%TO.P,R1,2*%
%TO.N,+3V3*%
X168810000Y-99950000D03*
%TD*%
%TO.P,C3,1*%
%TO.N,Net-(U4-CPOUT)*%
X161190000Y-113900000D03*
%TO.P,C3,2*%
%TO.N,GND*%
X163690000Y-113900000D03*
%TD*%
%TO.P,C2,1*%
%TO.N,+3V3*%
X161190000Y-110750000D03*
%TO.P,C2,2*%
%TO.N,unconnected-(C2-Pad2)*%
X163690000Y-110750000D03*
%TD*%
%TO.P,C1,1*%
%TO.N,+3V3*%
X161190000Y-107600000D03*
%TO.P,C1,2*%
%TO.N,GND*%
X163690000Y-107600000D03*
%TD*%
D19*
%TO.N,+3V3*%
X169990700Y-93653100D03*
%TD*%
%TO.N,Net-(U2-P0_D6_TX)*%
D20*
X155888500Y-114620000D02*
X155888500Y-115455000D01*
X155888500Y-111329700D02*
X155888500Y-114620000D01*
X160754800Y-106463400D02*
X155888500Y-111329700D01*
X164699800Y-106463400D02*
X160754800Y-106463400D01*
X165836400Y-107600000D02*
X164699800Y-106463400D01*
X166828100Y-107600000D02*
X165836400Y-107600000D01*
X170093000Y-104335100D02*
X166828100Y-107600000D01*
X170093000Y-94606200D02*
X170093000Y-104335100D01*
X169200000Y-93713200D02*
X170093000Y-94606200D01*
X169200000Y-93700000D02*
X169200000Y-93713200D01*
%TO.N,Net-(U4-CPOUT)*%
X168700000Y-89256000D02*
X168700000Y-89800000D01*
X168904500Y-89051500D02*
X168700000Y-89256000D01*
X169557500Y-89051500D02*
X168904500Y-89051500D01*
X171077700Y-90571700D02*
X169557500Y-89051500D01*
X171077700Y-108074600D02*
X171077700Y-90571700D01*
X164143300Y-115009000D02*
X171077700Y-108074600D01*
X162299000Y-115009000D02*
X164143300Y-115009000D01*
X161190000Y-113900000D02*
X162299000Y-115009000D01*
%TO.N,unconnected-(U2-P27_A1_D1-Pad2)*%
X143188500Y-114620000D02*
X143188500Y-115455000D01*
%TO.N,unconnected-(U2-P3_D10_MOSI-Pad11)*%
X148268500Y-98545000D02*
X148268500Y-99380000D01*
%TO.N,unconnected-(U2-P29_A3_D3-Pad4)*%
X148268500Y-114620000D02*
X148268500Y-115455000D01*
%TO.N,unconnected-(U2-P1_D7_RX-Pad8)*%
X155888500Y-98545000D02*
X155888500Y-99380000D01*
%TO.N,unconnected-(U2-P2_D8_SCK-Pad9)*%
X153348500Y-98545000D02*
X153348500Y-99380000D01*
%TO.N,unconnected-(U2-P4_D9_MISO-Pad10)*%
X150808500Y-98545000D02*
X150808500Y-99380000D01*
%TO.N,unconnected-(U2-P28_A2_D2-Pad3)*%
X145728500Y-114620000D02*
X145728500Y-115455000D01*
%TO.N,unconnected-(U2-3V3-Pad12)*%
X145728500Y-98545000D02*
X145728500Y-99380000D01*
%TO.N,unconnected-(U2-P26_A0_D0-Pad1)*%
X140648500Y-114620000D02*
X140648500Y-115455000D01*
%TO.N,unconnected-(U2-VBUS-Pad14)*%
X140648500Y-98545000D02*
X140648500Y-99380000D01*
%TO.N,/scl*%
X153348500Y-114620000D02*
X153348500Y-115455000D01*
X153333700Y-68936300D02*
X152270000Y-70000000D01*
X155275700Y-68936300D02*
X153333700Y-68936300D01*
X165110700Y-78771300D02*
X155275700Y-68936300D01*
X165110700Y-87107400D02*
X165110700Y-78771300D01*
X167200000Y-89196700D02*
X165110700Y-87107400D01*
X167200000Y-89800000D02*
X167200000Y-89196700D01*
X152270000Y-113541500D02*
X152270000Y-70000000D01*
X153348500Y-114620000D02*
X152270000Y-113541500D01*
%TO.N,/sda*%
X150808500Y-114620000D02*
X150808500Y-115455000D01*
X154618500Y-106521500D02*
X161190000Y-99950000D01*
X154618500Y-116530900D02*
X154618500Y-106521500D01*
X154126400Y-117023000D02*
X154618500Y-116530900D01*
X152376500Y-117023000D02*
X154126400Y-117023000D01*
X150808500Y-115455000D02*
X152376500Y-117023000D01*
X154810000Y-78928900D02*
X165681100Y-89800000D01*
X154810000Y-70000000D02*
X154810000Y-78928900D01*
X165131000Y-90350100D02*
X165681100Y-89800000D01*
X165131000Y-96009000D02*
X165131000Y-90350100D01*
X161190000Y-99950000D02*
X165131000Y-96009000D01*
X165681100Y-89800000D02*
X166700000Y-89800000D01*
%TO.N,GND*%
X162518100Y-112728100D02*
X163690000Y-113900000D01*
X162518100Y-108771900D02*
X162518100Y-112728100D01*
X163690000Y-107600000D02*
X162518100Y-108771900D01*
X143188500Y-98545000D02*
X143188500Y-99380000D01*
X147190000Y-94543500D02*
X143188500Y-98545000D01*
X147190000Y-70000000D02*
X147190000Y-94543500D01*
X170380900Y-90500000D02*
X169900000Y-90500000D01*
X170676000Y-90795100D02*
X170380900Y-90500000D01*
X170676000Y-104320100D02*
X170676000Y-90795100D01*
X166994400Y-108001700D02*
X170676000Y-104320100D01*
X164091700Y-108001700D02*
X166994400Y-108001700D01*
X163690000Y-107600000D02*
X164091700Y-108001700D01*
%TO.N,+3V3*%
X161190000Y-107600000D02*
X161190000Y-110750000D01*
X168810000Y-99950000D02*
X168810000Y-104000000D01*
X167200000Y-98340000D02*
X168810000Y-99950000D01*
X167200000Y-93700000D02*
X167200000Y-98340000D01*
X169900000Y-93562400D02*
X169900000Y-93000000D01*
X169990700Y-93653100D02*
X169900000Y-93562400D01*
%TD*%
M02*
