%TF.GenerationSoftware,KiCad,Pcbnew,10.0.1*%
%TF.CreationDate,2026-06-20T17:31:18+05:30*%
%TF.ProjectId,hermas,6865726d-6173-42e6-9b69-6361645f7063,rev?*%
%TF.SameCoordinates,Original*%
%TF.FileFunction,Soldermask,Top*%
%TF.FilePolarity,Negative*%
%FSLAX46Y46*%
G04 Gerber Fmt 4.6, Leading zero omitted, Abs format (unit mm)*
G04 Created by KiCad (PCBNEW 10.0.1) date 2026-06-20 17:31:18*
%MOMM*%
%LPD*%
G01*
G04 APERTURE LIST*
G04 Aperture macros list*
%AMRoundRect*
0 Rectangle with rounded corners*
0 $1 Rounding radius*
0 $2 $3 $4 $5 $6 $7 $8 $9 X,Y pos of 4 corners*
0 Add a 4 corners polygon primitive as box body*
4,1,4,$2,$3,$4,$5,$6,$7,$8,$9,$2,$3,0*
0 Add four circle primitives for the rounded corners*
1,1,$1+$1,$2,$3*
1,1,$1+$1,$4,$5*
1,1,$1+$1,$6,$7*
1,1,$1+$1,$8,$9*
0 Add four rect primitives between the rounded corners*
20,1,$1+$1,$2,$3,$4,$5,0*
20,1,$1+$1,$4,$5,$6,$7,0*
20,1,$1+$1,$6,$7,$8,$9,0*
20,1,$1+$1,$8,$9,$2,$3,0*%
G04 Aperture macros list end*
%ADD10RoundRect,0.075000X-0.350000X-0.075000X0.350000X-0.075000X0.350000X0.075000X-0.350000X0.075000X0*%
%ADD11RoundRect,0.075000X0.075000X-0.350000X0.075000X0.350000X-0.075000X0.350000X-0.075000X-0.350000X0*%
%ADD12RoundRect,0.102000X-0.754000X-0.754000X0.754000X-0.754000X0.754000X0.754000X-0.754000X0.754000X0*%
%ADD13C,1.712000*%
%ADD14C,3.204000*%
%ADD15RoundRect,0.152400X-0.609600X1.063600X-0.609600X-1.063600X0.609600X-1.063600X0.609600X1.063600X0*%
%ADD16C,1.524000*%
%ADD17RoundRect,0.152400X0.609600X-1.063600X0.609600X1.063600X-0.609600X1.063600X-0.609600X-1.063600X0*%
%ADD18C,1.600000*%
G04 APERTURE END LIST*
D10*
%TO.C,U4*%
X166000000Y-90500000D03*
X166000000Y-91000000D03*
X166000000Y-91500000D03*
X166000000Y-92000000D03*
X166000000Y-92500000D03*
X166000000Y-93000000D03*
D11*
X166700000Y-93700000D03*
X167200000Y-93700000D03*
X167700000Y-93700000D03*
X168200000Y-93700000D03*
X168700000Y-93700000D03*
X169200000Y-93700000D03*
D10*
X169900000Y-93000000D03*
X169900000Y-92500000D03*
X169900000Y-92000000D03*
X169900000Y-91500000D03*
X169900000Y-91000000D03*
X169900000Y-90500000D03*
D11*
X169200000Y-89800000D03*
X168700000Y-89800000D03*
X168200000Y-89800000D03*
X167700000Y-89800000D03*
X167200000Y-89800000D03*
X166700000Y-89800000D03*
%TD*%
D12*
%TO.C,U3*%
X147190000Y-70000000D03*
D13*
X149730000Y-70000000D03*
X152270000Y-70000000D03*
X154810000Y-70000000D03*
D14*
X140000000Y-70500000D03*
X162000000Y-70500000D03*
X162000000Y-92500000D03*
X140000000Y-92500000D03*
%TD*%
D15*
%TO.C,U2*%
X140648500Y-115455000D03*
D16*
X140648500Y-114620000D03*
D15*
X143188500Y-115455000D03*
D16*
X143188500Y-114620000D03*
D15*
X145728500Y-115455000D03*
D16*
X145728500Y-114620000D03*
D15*
X148268500Y-115455000D03*
D16*
X148268500Y-114620000D03*
D15*
X150808500Y-115455000D03*
D16*
X150808500Y-114620000D03*
D15*
X153348500Y-115455000D03*
D16*
X153348500Y-114620000D03*
D15*
X155888500Y-115455000D03*
D16*
X155888500Y-114620000D03*
X155888500Y-99380000D03*
D17*
X155888500Y-98545000D03*
D16*
X153348500Y-99380000D03*
D17*
X153348500Y-98545000D03*
D16*
X150808500Y-99380000D03*
D17*
X150808500Y-98545000D03*
D16*
X148268500Y-99380000D03*
D17*
X148268500Y-98545000D03*
D16*
X145728500Y-99380000D03*
D17*
X145728500Y-98545000D03*
D16*
X143188500Y-99380000D03*
D17*
X143188500Y-98545000D03*
D16*
X140648500Y-99380000D03*
D17*
X140648500Y-98545000D03*
%TD*%
D18*
%TO.C,R2*%
X161190000Y-104000000D03*
X168810000Y-104000000D03*
%TD*%
%TO.C,R1*%
X161190000Y-99950000D03*
X168810000Y-99950000D03*
%TD*%
%TO.C,C3*%
X161190000Y-113900000D03*
X163690000Y-113900000D03*
%TD*%
%TO.C,C2*%
X161190000Y-110750000D03*
X163690000Y-110750000D03*
%TD*%
%TO.C,C1*%
X161190000Y-107600000D03*
X163690000Y-107600000D03*
%TD*%
M02*
