%TF.GenerationSoftware,KiCad,Pcbnew,10.0.1*%
%TF.CreationDate,2026-06-20T17:31:18+05:30*%
%TF.ProjectId,hermas,6865726d-6173-42e6-9b69-6361645f7063,rev?*%
%TF.SameCoordinates,Original*%
%TF.FileFunction,Legend,Top*%
%TF.FilePolarity,Positive*%
%FSLAX46Y46*%
G04 Gerber Fmt 4.6, Leading zero omitted, Abs format (unit mm)*
G04 Created by KiCad (PCBNEW 10.0.1) date 2026-06-20 17:31:18*
%MOMM*%
%LPD*%
G01*
G04 APERTURE LIST*
%ADD10C,0.150000*%
%ADD11C,0.101600*%
%ADD12C,0.120000*%
%ADD13C,0.200000*%
%ADD14C,0.127000*%
%ADD15C,0.100000*%
%ADD16C,0.504000*%
G04 APERTURE END LIST*
D10*
X167188095Y-87829819D02*
X167188095Y-88639342D01*
X167188095Y-88639342D02*
X167235714Y-88734580D01*
X167235714Y-88734580D02*
X167283333Y-88782200D01*
X167283333Y-88782200D02*
X167378571Y-88829819D01*
X167378571Y-88829819D02*
X167569047Y-88829819D01*
X167569047Y-88829819D02*
X167664285Y-88782200D01*
X167664285Y-88782200D02*
X167711904Y-88734580D01*
X167711904Y-88734580D02*
X167759523Y-88639342D01*
X167759523Y-88639342D02*
X167759523Y-87829819D01*
X168664285Y-88163152D02*
X168664285Y-88829819D01*
X168426190Y-87782200D02*
X168188095Y-88496485D01*
X168188095Y-88496485D02*
X168807142Y-88496485D01*
X140713095Y-66984819D02*
X140713095Y-67794342D01*
X140713095Y-67794342D02*
X140760714Y-67889580D01*
X140760714Y-67889580D02*
X140808333Y-67937200D01*
X140808333Y-67937200D02*
X140903571Y-67984819D01*
X140903571Y-67984819D02*
X141094047Y-67984819D01*
X141094047Y-67984819D02*
X141189285Y-67937200D01*
X141189285Y-67937200D02*
X141236904Y-67889580D01*
X141236904Y-67889580D02*
X141284523Y-67794342D01*
X141284523Y-67794342D02*
X141284523Y-66984819D01*
X141665476Y-66984819D02*
X142284523Y-66984819D01*
X142284523Y-66984819D02*
X141951190Y-67365771D01*
X141951190Y-67365771D02*
X142094047Y-67365771D01*
X142094047Y-67365771D02*
X142189285Y-67413390D01*
X142189285Y-67413390D02*
X142236904Y-67461009D01*
X142236904Y-67461009D02*
X142284523Y-67556247D01*
X142284523Y-67556247D02*
X142284523Y-67794342D01*
X142284523Y-67794342D02*
X142236904Y-67889580D01*
X142236904Y-67889580D02*
X142189285Y-67937200D01*
X142189285Y-67937200D02*
X142094047Y-67984819D01*
X142094047Y-67984819D02*
X141808333Y-67984819D01*
X141808333Y-67984819D02*
X141713095Y-67937200D01*
X141713095Y-67937200D02*
X141665476Y-67889580D01*
D11*
X148877309Y-117596520D02*
X148877309Y-117082473D01*
X148877309Y-117082473D02*
X148847071Y-117021997D01*
X148847071Y-117021997D02*
X148816833Y-116991759D01*
X148816833Y-116991759D02*
X148756357Y-116961520D01*
X148756357Y-116961520D02*
X148635404Y-116961520D01*
X148635404Y-116961520D02*
X148574928Y-116991759D01*
X148574928Y-116991759D02*
X148544690Y-117021997D01*
X148544690Y-117021997D02*
X148514452Y-117082473D01*
X148514452Y-117082473D02*
X148514452Y-117596520D01*
X148242309Y-117536044D02*
X148212071Y-117566282D01*
X148212071Y-117566282D02*
X148151595Y-117596520D01*
X148151595Y-117596520D02*
X148000404Y-117596520D01*
X148000404Y-117596520D02*
X147939928Y-117566282D01*
X147939928Y-117566282D02*
X147909690Y-117536044D01*
X147909690Y-117536044D02*
X147879452Y-117475568D01*
X147879452Y-117475568D02*
X147879452Y-117415092D01*
X147879452Y-117415092D02*
X147909690Y-117324378D01*
X147909690Y-117324378D02*
X148272547Y-116961520D01*
X148272547Y-116961520D02*
X147879452Y-116961520D01*
D10*
X164833333Y-102084819D02*
X164500000Y-101608628D01*
X164261905Y-102084819D02*
X164261905Y-101084819D01*
X164261905Y-101084819D02*
X164642857Y-101084819D01*
X164642857Y-101084819D02*
X164738095Y-101132438D01*
X164738095Y-101132438D02*
X164785714Y-101180057D01*
X164785714Y-101180057D02*
X164833333Y-101275295D01*
X164833333Y-101275295D02*
X164833333Y-101418152D01*
X164833333Y-101418152D02*
X164785714Y-101513390D01*
X164785714Y-101513390D02*
X164738095Y-101561009D01*
X164738095Y-101561009D02*
X164642857Y-101608628D01*
X164642857Y-101608628D02*
X164261905Y-101608628D01*
X165214286Y-101180057D02*
X165261905Y-101132438D01*
X165261905Y-101132438D02*
X165357143Y-101084819D01*
X165357143Y-101084819D02*
X165595238Y-101084819D01*
X165595238Y-101084819D02*
X165690476Y-101132438D01*
X165690476Y-101132438D02*
X165738095Y-101180057D01*
X165738095Y-101180057D02*
X165785714Y-101275295D01*
X165785714Y-101275295D02*
X165785714Y-101370533D01*
X165785714Y-101370533D02*
X165738095Y-101513390D01*
X165738095Y-101513390D02*
X165166667Y-102084819D01*
X165166667Y-102084819D02*
X165785714Y-102084819D01*
X164833333Y-98034819D02*
X164500000Y-97558628D01*
X164261905Y-98034819D02*
X164261905Y-97034819D01*
X164261905Y-97034819D02*
X164642857Y-97034819D01*
X164642857Y-97034819D02*
X164738095Y-97082438D01*
X164738095Y-97082438D02*
X164785714Y-97130057D01*
X164785714Y-97130057D02*
X164833333Y-97225295D01*
X164833333Y-97225295D02*
X164833333Y-97368152D01*
X164833333Y-97368152D02*
X164785714Y-97463390D01*
X164785714Y-97463390D02*
X164738095Y-97511009D01*
X164738095Y-97511009D02*
X164642857Y-97558628D01*
X164642857Y-97558628D02*
X164261905Y-97558628D01*
X165785714Y-98034819D02*
X165214286Y-98034819D01*
X165500000Y-98034819D02*
X165500000Y-97034819D01*
X165500000Y-97034819D02*
X165404762Y-97177676D01*
X165404762Y-97177676D02*
X165309524Y-97272914D01*
X165309524Y-97272914D02*
X165214286Y-97320533D01*
X162273333Y-112209580D02*
X162225714Y-112257200D01*
X162225714Y-112257200D02*
X162082857Y-112304819D01*
X162082857Y-112304819D02*
X161987619Y-112304819D01*
X161987619Y-112304819D02*
X161844762Y-112257200D01*
X161844762Y-112257200D02*
X161749524Y-112161961D01*
X161749524Y-112161961D02*
X161701905Y-112066723D01*
X161701905Y-112066723D02*
X161654286Y-111876247D01*
X161654286Y-111876247D02*
X161654286Y-111733390D01*
X161654286Y-111733390D02*
X161701905Y-111542914D01*
X161701905Y-111542914D02*
X161749524Y-111447676D01*
X161749524Y-111447676D02*
X161844762Y-111352438D01*
X161844762Y-111352438D02*
X161987619Y-111304819D01*
X161987619Y-111304819D02*
X162082857Y-111304819D01*
X162082857Y-111304819D02*
X162225714Y-111352438D01*
X162225714Y-111352438D02*
X162273333Y-111400057D01*
X162606667Y-111304819D02*
X163225714Y-111304819D01*
X163225714Y-111304819D02*
X162892381Y-111685771D01*
X162892381Y-111685771D02*
X163035238Y-111685771D01*
X163035238Y-111685771D02*
X163130476Y-111733390D01*
X163130476Y-111733390D02*
X163178095Y-111781009D01*
X163178095Y-111781009D02*
X163225714Y-111876247D01*
X163225714Y-111876247D02*
X163225714Y-112114342D01*
X163225714Y-112114342D02*
X163178095Y-112209580D01*
X163178095Y-112209580D02*
X163130476Y-112257200D01*
X163130476Y-112257200D02*
X163035238Y-112304819D01*
X163035238Y-112304819D02*
X162749524Y-112304819D01*
X162749524Y-112304819D02*
X162654286Y-112257200D01*
X162654286Y-112257200D02*
X162606667Y-112209580D01*
X162273333Y-109059580D02*
X162225714Y-109107200D01*
X162225714Y-109107200D02*
X162082857Y-109154819D01*
X162082857Y-109154819D02*
X161987619Y-109154819D01*
X161987619Y-109154819D02*
X161844762Y-109107200D01*
X161844762Y-109107200D02*
X161749524Y-109011961D01*
X161749524Y-109011961D02*
X161701905Y-108916723D01*
X161701905Y-108916723D02*
X161654286Y-108726247D01*
X161654286Y-108726247D02*
X161654286Y-108583390D01*
X161654286Y-108583390D02*
X161701905Y-108392914D01*
X161701905Y-108392914D02*
X161749524Y-108297676D01*
X161749524Y-108297676D02*
X161844762Y-108202438D01*
X161844762Y-108202438D02*
X161987619Y-108154819D01*
X161987619Y-108154819D02*
X162082857Y-108154819D01*
X162082857Y-108154819D02*
X162225714Y-108202438D01*
X162225714Y-108202438D02*
X162273333Y-108250057D01*
X162654286Y-108250057D02*
X162701905Y-108202438D01*
X162701905Y-108202438D02*
X162797143Y-108154819D01*
X162797143Y-108154819D02*
X163035238Y-108154819D01*
X163035238Y-108154819D02*
X163130476Y-108202438D01*
X163130476Y-108202438D02*
X163178095Y-108250057D01*
X163178095Y-108250057D02*
X163225714Y-108345295D01*
X163225714Y-108345295D02*
X163225714Y-108440533D01*
X163225714Y-108440533D02*
X163178095Y-108583390D01*
X163178095Y-108583390D02*
X162606667Y-109154819D01*
X162606667Y-109154819D02*
X163225714Y-109154819D01*
X162273333Y-105909580D02*
X162225714Y-105957200D01*
X162225714Y-105957200D02*
X162082857Y-106004819D01*
X162082857Y-106004819D02*
X161987619Y-106004819D01*
X161987619Y-106004819D02*
X161844762Y-105957200D01*
X161844762Y-105957200D02*
X161749524Y-105861961D01*
X161749524Y-105861961D02*
X161701905Y-105766723D01*
X161701905Y-105766723D02*
X161654286Y-105576247D01*
X161654286Y-105576247D02*
X161654286Y-105433390D01*
X161654286Y-105433390D02*
X161701905Y-105242914D01*
X161701905Y-105242914D02*
X161749524Y-105147676D01*
X161749524Y-105147676D02*
X161844762Y-105052438D01*
X161844762Y-105052438D02*
X161987619Y-105004819D01*
X161987619Y-105004819D02*
X162082857Y-105004819D01*
X162082857Y-105004819D02*
X162225714Y-105052438D01*
X162225714Y-105052438D02*
X162273333Y-105100057D01*
X163225714Y-106004819D02*
X162654286Y-106004819D01*
X162940000Y-106004819D02*
X162940000Y-105004819D01*
X162940000Y-105004819D02*
X162844762Y-105147676D01*
X162844762Y-105147676D02*
X162749524Y-105242914D01*
X162749524Y-105242914D02*
X162654286Y-105290533D01*
%TO.C,U4*%
D12*
X165800000Y-90065000D02*
X165800000Y-89840000D01*
X165800000Y-93900000D02*
X165800000Y-93375000D01*
X165800000Y-93900000D02*
X166325000Y-93900000D01*
X166325000Y-89600000D02*
X166100000Y-89600000D01*
X170100000Y-89600000D02*
X169575000Y-89600000D01*
X170100000Y-89600000D02*
X170100000Y-90125000D01*
X170100000Y-93900000D02*
X169575000Y-93900000D01*
X170100000Y-93900000D02*
X170100000Y-93375000D01*
X165800000Y-89600000D02*
X165560000Y-89270000D01*
X166040000Y-89270000D01*
X165800000Y-89600000D01*
G36*
X165800000Y-89600000D02*
G01*
X165560000Y-89270000D01*
X166040000Y-89270000D01*
X165800000Y-89600000D01*
G37*
%TO.C,U3*%
D13*
X147100000Y-68000000D02*
G75*
G02*
X146900000Y-68000000I-100000J0D01*
G01*
X146900000Y-68000000D02*
G75*
G02*
X147100000Y-68000000I100000J0D01*
G01*
D14*
X138000000Y-68500000D02*
X164000000Y-68500000D01*
X164000000Y-68500000D02*
X164000000Y-94500000D01*
X164000000Y-94500000D02*
X158000000Y-94500000D01*
X158000000Y-94500000D02*
X158000000Y-92500000D01*
X158000000Y-92500000D02*
X144000000Y-92500000D01*
X144000000Y-92500000D02*
X144000000Y-94500000D01*
X144000000Y-94500000D02*
X138000000Y-94500000D01*
X138000000Y-94500000D02*
X138000000Y-68500000D01*
%TO.C,U2*%
X158682500Y-113985000D02*
X158682500Y-100015000D01*
X156777500Y-115890000D02*
X139632500Y-115890000D01*
X156777500Y-98110000D02*
X139632500Y-98110000D01*
X137727500Y-111495000D02*
X136817228Y-111491272D01*
D15*
X137727500Y-100015000D02*
X137727500Y-113985000D01*
D14*
X137727500Y-100015000D02*
X137727500Y-113985000D01*
X136817500Y-102496000D02*
X137727500Y-102496000D01*
X136317500Y-110991272D02*
X136317500Y-102996000D01*
X158682500Y-113985000D02*
G75*
G02*
X156777500Y-115890000I-1905001J1D01*
G01*
X156777500Y-98110000D02*
G75*
G02*
X158682500Y-100015000I-1J-1905001D01*
G01*
X139632500Y-115890000D02*
G75*
G02*
X137727500Y-113985000I0J1905000D01*
G01*
X137727500Y-100015000D02*
G75*
G02*
X139632500Y-98110000I1905000J0D01*
G01*
X136817228Y-111491272D02*
G75*
G02*
X136317528Y-110991272I272J499972D01*
G01*
X136317500Y-102996000D02*
G75*
G02*
X136817500Y-102496000I500000J0D01*
G01*
D16*
X139100500Y-114807000D02*
G75*
G02*
X138596500Y-114807000I-252000J0D01*
G01*
X138596500Y-114807000D02*
G75*
G02*
X139100500Y-114807000I252000J0D01*
G01*
X138220500Y-115950000D02*
G75*
G02*
X137716500Y-115950000I-252000J0D01*
G01*
X137716500Y-115950000D02*
G75*
G02*
X138220500Y-115950000I252000J0D01*
G01*
%TO.C,R2*%
D12*
X161730000Y-102630000D02*
X168270000Y-102630000D01*
X161730000Y-102960000D02*
X161730000Y-102630000D01*
X161730000Y-105040000D02*
X161730000Y-105370000D01*
X161730000Y-105370000D02*
X168270000Y-105370000D01*
X168270000Y-102630000D02*
X168270000Y-102960000D01*
X168270000Y-105370000D02*
X168270000Y-105040000D01*
%TO.C,R1*%
X161730000Y-98580000D02*
X168270000Y-98580000D01*
X161730000Y-98910000D02*
X161730000Y-98580000D01*
X161730000Y-100990000D02*
X161730000Y-101320000D01*
X161730000Y-101320000D02*
X168270000Y-101320000D01*
X168270000Y-98580000D02*
X168270000Y-98910000D01*
X168270000Y-101320000D02*
X168270000Y-100990000D01*
%TO.C,C3*%
X161675000Y-112980000D02*
X163205000Y-112980000D01*
X163205000Y-114820000D02*
X161675000Y-114820000D01*
%TO.C,C2*%
X161675000Y-109830000D02*
X163205000Y-109830000D01*
X163205000Y-111670000D02*
X161675000Y-111670000D01*
%TO.C,C1*%
X161675000Y-106680000D02*
X163205000Y-106680000D01*
X163205000Y-108520000D02*
X161675000Y-108520000D01*
%TD*%
M02*
