M48
; DRILL file KiCad 10.0.1 date 2026-06-20T17:31:15
; FORMAT={-:-/ absolute / metric / decimal}
; #@! TF.CreationDate,2026-06-20T17:31:15+05:30
; #@! TF.GenerationSoftware,Kicad,Pcbnew,10.0.1
; #@! TF.FileFunction,Plated,1,2,PTH
FMAT,2
METRIC
; #@! TA.AperFunction,Plated,PTH,ViaDrill
T1C0.300
; #@! TA.AperFunction,Plated,PTH,ComponentDrill
T2C0.800
; #@! TA.AperFunction,Plated,PTH,ComponentDrill
T3C0.889
; #@! TA.AperFunction,Plated,PTH,ComponentDrill
T4C1.000
; #@! TA.AperFunction,Plated,PTH,ComponentDrill
T5C2.000
%
G90
G05
T1
X169.991Y-93.653
T2
X161.19Y-99.95
X161.19Y-104.0
X161.19Y-107.6
X161.19Y-110.75
X161.19Y-113.9
X163.69Y-107.6
X163.69Y-110.75
X163.69Y-113.9
X168.81Y-99.95
X168.81Y-104.0
T3
X140.648Y-99.38
X140.648Y-114.62
X143.189Y-99.38
X143.189Y-114.62
X145.728Y-99.38
X145.728Y-114.62
X148.268Y-99.38
X148.268Y-114.62
X150.808Y-99.38
X150.808Y-114.62
X153.349Y-99.38
X153.349Y-114.62
X155.888Y-99.38
X155.888Y-114.62
T4
X147.19Y-70.0
X149.73Y-70.0
X152.27Y-70.0
X154.81Y-70.0
T5
X140.0Y-70.5
X140.0Y-92.5
X162.0Y-70.5
X162.0Y-92.5
M30
